# xmcd
# Track frame offsets:
# 150
# 29189
# 45777
# 68072
# 82685
# 99908
# 118747
# 131131
# 147564
# 163803
# 179933
# 203108
# 216753
# 222305
# 244792
#
# Disc length: 3514 seconds
# Revision: 0
# Processed by: cddbd v1.5.2PL0 Copyright (c) Steve Scherf et al.
# Submitted via: VisiTrax 2.11.2.271 - For more info visit www.synapsa.com
#
DISCID=e30db80f
DTITLE=Hugh laurie - Let Them Talk
DYEAR=2011
DGENRE=Blues
TTITLE0=St. James Infirmary
TTITLE1=You Don't Know My Mind
TTITLE2=Six Cold feet
TTITLE3=Buddy Holden's Blues
TTITLE4=Battle Of Jericho
TTITLE5=After You've Gone
TTITLE6=Swannee River
TTITLE7=The Whale Has Swallowed Me
TTITLE8=John Henry
TTITLE9=Police Dog Blues
TTITLE10=Tipitina
TTITLE11=Winnin' Boy Blues
TTITLE12=They're Red Hot
TTITLE13=Baby, Please Make A Change
TTITLE14=Let Them Talk
EXTD=
EXTT0=
EXTT1=
EXTT2=
EXTT3=
EXTT4=
EXTT5=
EXTT6=
EXTT7=
EXTT8=
EXTT9=
EXTT10=
EXTT11=
EXTT12=
EXTT13=
EXTT14=
PLAYORDER=
